<svg width="732" height="302" viewBox="0 0 732 302" fill="none" xmlns="http://www.w3.org/2000/svg">
<circle cx="75" cy="75" r="75" transform="scale(2)" fill="white"/>
<path d="M17.619 40.3636L35.1424 30.2726V10.0909L17.619 0L0 10.0909V30.2726L17.619 40.3636Z" transform="translate(62 140.719) scale(2)" fill="#5BCBF0"/>
<path d="M17.619 40.3636L35.2381 30.368L35.3338 10.0909L17.7148 0L0.0957541 9.99571L0 30.2726L17.619 40.3636Z" transform="translate(96.856 160.901) scale(2)" fill="#77C696"/>
<path d="M17.619 40.4587L35.2381 30.3677L35.3338 10.1861L17.7148 0L0.0957541 10.0909L0 30.2726L17.619 40.4587Z" transform="translate(167.33 161.091) scale(2)" fill="#FCD63C"/>
<path d="M17.619 40.4587L35.2381 30.4632V10.1861L17.7148 0L0.0957577 10.0909L0 30.2726L17.619 40.4587Z" transform="translate(132.093 181.083) scale(2)" fill="#ED1D69"/>
<path d="M17.5233 40.4587L35.1424 30.4632L35.2381 10.1861L17.619 0L0 10.0909V30.3677L17.5233 40.4587Z" transform="translate(167.524 120.536) scale(2)" fill="#B23566"/>
<path d="M17.619 40.3636L35.2381 30.2726V10.0909L17.619 0L0 10.0909V30.2726L17.619 40.3636Z" transform="translate(97.2388 40) scale(2)" fill="#FCD63C"/>
<path d="M17.619 40.3636L35.1424 30.2726V10.0909L17.619 0L0 10.0909V30.2726L17.619 40.3636Z" transform="translate(132.477 60.1816) scale(2)" fill="#77C696"/>
<path d="M17.5233 40.3636L35.1424 30.2726V10.0909L17.5233 0L0 10.0909V30.2726L17.5233 40.3636Z" transform="translate(167.714 80.3633) scale(2)" fill="#5BCBF0"/>
<path d="M17.619 40.3636L35.1424 30.2726V10.0909L17.619 0L0 10.0909V30.2726L17.619 40.3636Z" transform="translate(62 100.354) scale(2)" fill="#B23566"/>
<path d="M17.619 40.3636L35.1424 30.2726V10.0909L17.619 0L0 10.0909V30.2726L17.619 40.3636Z" transform="translate(62.1929 60.1816) scale(2)" fill="#ED1D69"/>
<path d="M5.39551 79V18.5703H26.5625C33.8949 18.5703 39.4564 19.9814 43.2471 22.8037C47.0378 25.5983 48.9331 29.7072 48.9331 35.1304C48.9331 38.091 48.1722 40.7057 46.6504 42.9746C45.1286 45.2158 43.0119 46.8621 40.3003 47.9136C43.3993 48.6883 45.8341 50.2516 47.605 52.6035C49.4035 54.9554 50.3027 57.833 50.3027 61.2363C50.3027 67.0469 48.4489 71.4463 44.7412 74.4346C41.0335 77.4229 35.7487 78.9447 28.8867 79H5.39551ZM17.8467 52.6865V68.9976H28.5132C31.4461 68.9976 33.7288 68.3058 35.3613 66.9224C37.0215 65.5112 37.8516 63.5744 37.8516 61.1118C37.8516 55.578 34.9878 52.7695 29.2603 52.6865H17.8467ZM17.8467 43.8877H27.0605C33.3415 43.777 36.4819 41.2729 36.4819 36.3755C36.4819 33.6362 35.6795 31.6717 34.0747 30.4819C32.4976 29.2645 29.9935 28.6558 26.5625 28.6558H17.8467V43.8877ZM84.1284 45.3403C82.4959 45.119 81.0571 45.0083 79.812 45.0083C75.2743 45.0083 72.2998 46.5439 70.8887 49.6152V79H58.894V34.0928H70.2246L70.5566 39.4468C72.9639 35.3241 76.298 33.2627 80.5591 33.2627C81.8872 33.2627 83.1323 33.4425 84.2944 33.8022L84.1284 45.3403ZM102.598 79H90.5615V34.0928H102.598V79ZM89.856 22.4717C89.856 20.6732 90.4508 19.1929 91.6406 18.0308C92.8581 16.8687 94.5044 16.2876 96.5796 16.2876C98.6271 16.2876 100.26 16.8687 101.477 18.0308C102.694 19.1929 103.303 20.6732 103.303 22.4717C103.303 24.2979 102.681 25.792 101.436 26.9541C100.218 28.1162 98.5994 28.6973 96.5796 28.6973C94.5597 28.6973 92.9272 28.1162 91.6821 26.9541C90.4647 25.792 89.856 24.2979 89.856 22.4717ZM128.828 60.9873L124.512 65.3037V79H112.517V15.25H124.512V50.5698L126.836 47.5815L138.333 34.0928H152.734L136.506 52.811L154.146 79H140.366L128.828 60.9873ZM171.162 68.9976H197.6V79H158.711V18.5703H171.162V68.9976Z" transform="translate(332 62) scale(2)" fill="white"/>
</svg>
